<?xml version="1.0" encoding="UTF-8" standalone="no"?>
<!DOCTYPE svg PUBLIC "-//W3C//DTD SVG 1.1//EN"
 "http://www.w3.org/Graphics/SVG/1.1/DTD/svg11.dtd">
<!-- Generated by graphviz version 2.40.1 (20161225.0304)
 -->
<!-- Title: dependencies Pages: 1 -->
<svg width="609pt" height="284pt"
 viewBox="0.00 0.00 609.00 284.00" xmlns="http://www.w3.org/2000/svg" xmlns:xlink="http://www.w3.org/1999/xlink">
<g id="graph0" class="graph" transform="scale(1 1) rotate(0) translate(4 280)">
<title>dependencies</title>
<polygon fill="#ffffff" stroke="transparent" points="-4,4 -4,-280 605,-280 605,4 -4,4"/>
<text text-anchor="start" x="279.5091" y="-42.4" font-family="sans-serif" font-weight="bold" font-size="14.00" fill="#000000">Legend</text>
<polygon fill="#ffffb3" stroke="transparent" points="66.5,-10 66.5,-30 86.5,-30 86.5,-10 66.5,-10"/>
<text text-anchor="start" x="90.129" y="-15.4" font-family="sans-serif" font-size="14.00" fill="#000000"> &#160;Declarations</text>
<polygon fill="#8dd3c7" stroke="transparent" points="179.5,-10 179.5,-30 199.5,-30 199.5,-10 179.5,-10"/>
<text text-anchor="start" x="203.2251" y="-15.4" font-family="sans-serif" font-size="14.00" fill="#000000"> &#160;Module</text>
<polygon fill="#80b1d3" stroke="transparent" points="265.5,-10 265.5,-30 285.5,-30 285.5,-10 265.5,-10"/>
<text text-anchor="start" x="289.2812" y="-15.4" font-family="sans-serif" font-size="14.00" fill="#000000"> &#160;Bootstrap</text>
<polygon fill="#fdb462" stroke="transparent" points="362.5,-10 362.5,-30 382.5,-30 382.5,-10 362.5,-10"/>
<text text-anchor="start" x="386.1732" y="-15.4" font-family="sans-serif" font-size="14.00" fill="#000000"> &#160;Providers</text>
<polygon fill="#fb8072" stroke="transparent" points="458.5,-10 458.5,-30 478.5,-30 478.5,-10 458.5,-10"/>
<text text-anchor="start" x="482.2258" y="-15.4" font-family="sans-serif" font-size="14.00" fill="#000000"> &#160;Exports</text>
<g id="clust1" class="cluster">
<title>cluster_UserModule</title>
<polygon fill="none" stroke="#000000" stroke-dasharray="1,5" points="8,-70 8,-268 593,-268 593,-70 8,-70"/>
</g>
<g id="clust2" class="cluster">
<title>cluster_UserModule_declarations</title>
<polygon fill="none" stroke="#000000" points="427,-78 427,-130 585,-130 585,-78 427,-78"/>
</g>
<g id="clust4" class="cluster">
<title>cluster_UserModule_imports</title>
<polygon fill="none" stroke="#000000" points="186,-78 186,-130 419,-130 419,-78 186,-78"/>
</g>
<g id="clust5" class="cluster">
<title>cluster_UserModule_exports</title>
<polygon fill="none" stroke="#000000" points="225,-208 225,-260 387,-260 387,-208 225,-208"/>
</g>
<g id="clust7" class="cluster">
<title>cluster_UserModule_providers</title>
<polygon fill="none" stroke="#000000" points="16,-78 16,-130 178,-130 178,-78 16,-78"/>
</g>
<!-- AddFriendComponent -->
<g id="node1" class="node">
<title>AddFriendComponent</title>
<polygon fill="#ffffb3" stroke="#000000" points="576.9874,-122 435.0126,-122 435.0126,-86 576.9874,-86 576.9874,-122"/>
<text text-anchor="middle" x="506" y="-99.8" font-family="Times,serif" font-size="14.00" fill="#000000">AddFriendComponent</text>
</g>
<!-- UserModule -->
<g id="node2" class="node">
<title>UserModule</title>
<polygon fill="#8dd3c7" stroke="#000000" points="348.9762,-187 345.9762,-191 324.9762,-191 321.9762,-187 263.0238,-187 263.0238,-151 348.9762,-151 348.9762,-187"/>
<text text-anchor="middle" x="306" y="-164.8" font-family="Times,serif" font-size="14.00" fill="#000000">UserModule</text>
</g>
<!-- AddFriendComponent&#45;&gt;UserModule -->
<g id="edge1" class="edge">
<title>AddFriendComponent&#45;&gt;UserModule</title>
<path fill="none" stroke="#000000" d="M506,-122.1061C506,-141.3391 506,-169 506,-169 506,-169 359.397,-169 359.397,-169"/>
<polygon fill="#000000" stroke="#000000" points="359.3971,-165.5001 349.397,-169 359.397,-172.5001 359.3971,-165.5001"/>
</g>
<!-- AddFriendComponent  -->
<g id="node5" class="node">
<title>AddFriendComponent </title>
<polygon fill="#fb8072" stroke="#000000" points="378.9882,-252 233.0118,-252 233.0118,-216 378.9882,-216 378.9882,-252"/>
<text text-anchor="middle" x="306" y="-229.8" font-family="Times,serif" font-size="14.00" fill="#000000">AddFriendComponent </text>
</g>
<!-- UserModule&#45;&gt;AddFriendComponent  -->
<g id="edge4" class="edge">
<title>UserModule&#45;&gt;AddFriendComponent </title>
<path fill="none" stroke="#000000" stroke-dasharray="5,2" d="M306,-187.1061C306,-187.1061 306,-205.991 306,-205.991"/>
<polygon fill="#000000" stroke="#000000" points="302.5001,-205.9909 306,-215.991 309.5001,-205.991 302.5001,-205.9909"/>
</g>
<!-- FeedsModule -->
<g id="node3" class="node">
<title>FeedsModule</title>
<polygon fill="#8dd3c7" stroke="#000000" points="411.2064,-122 408.2064,-126 387.2064,-126 384.2064,-122 318.7936,-122 318.7936,-86 411.2064,-86 411.2064,-122"/>
<text text-anchor="middle" x="365" y="-99.8" font-family="Times,serif" font-size="14.00" fill="#000000">FeedsModule</text>
</g>
<!-- FeedsModule&#45;&gt;UserModule -->
<g id="edge2" class="edge">
<title>FeedsModule&#45;&gt;UserModule</title>
<path fill="none" stroke="#000000" d="M333.9425,-122.1061C333.9425,-122.1061 333.9425,-140.991 333.9425,-140.991"/>
<polygon fill="#000000" stroke="#000000" points="330.4426,-140.9909 333.9425,-150.991 337.4426,-140.991 330.4426,-140.9909"/>
</g>
<!-- MaterialModule -->
<g id="node4" class="node">
<title>MaterialModule</title>
<polygon fill="#8dd3c7" stroke="#000000" points="300.4706,-122 297.4706,-126 276.4706,-126 273.4706,-122 193.5294,-122 193.5294,-86 300.4706,-86 300.4706,-122"/>
<text text-anchor="middle" x="247" y="-99.8" font-family="Times,serif" font-size="14.00" fill="#000000">MaterialModule</text>
</g>
<!-- MaterialModule&#45;&gt;UserModule -->
<g id="edge3" class="edge">
<title>MaterialModule&#45;&gt;UserModule</title>
<path fill="none" stroke="#000000" d="M281.7486,-122.1061C281.7486,-122.1061 281.7486,-140.991 281.7486,-140.991"/>
<polygon fill="#000000" stroke="#000000" points="278.2487,-140.9909 281.7486,-150.991 285.2487,-140.991 278.2487,-140.9909"/>
</g>
<!-- UserApiService -->
<g id="node6" class="node">
<title>UserApiService</title>
<ellipse fill="#fdb462" stroke="#000000" cx="97" cy="-104" rx="72.9082" ry="18"/>
<text text-anchor="middle" x="97" y="-99.8" font-family="Times,serif" font-size="14.00" fill="#000000">UserApiService</text>
</g>
<!-- UserApiService&#45;&gt;UserModule -->
<g id="edge5" class="edge">
<title>UserApiService&#45;&gt;UserModule</title>
<path fill="none" stroke="#000000" d="M97,-122.1061C97,-141.3391 97,-169 97,-169 97,-169 252.9485,-169 252.9485,-169"/>
<polygon fill="#000000" stroke="#000000" points="252.9485,-172.5001 262.9485,-169 252.9484,-165.5001 252.9485,-172.5001"/>
</g>
</g>
</svg>
