<?xml version="1.0" encoding="UTF-8" standalone="no"?>
<!DOCTYPE svg PUBLIC "-//W3C//DTD SVG 1.1//EN"
 "http://www.w3.org/Graphics/SVG/1.1/DTD/svg11.dtd">
<!-- Generated by graphviz version 2.40.1 (20161225.0304)
 -->
<!-- Title: dependencies Pages: 1 -->
<svg width="1273pt" height="355pt"
 viewBox="0.00 0.00 1273.00 355.00" xmlns="http://www.w3.org/2000/svg" xmlns:xlink="http://www.w3.org/1999/xlink">
<g id="graph0" class="graph" transform="scale(1 1) rotate(0) translate(4 351)">
<title>dependencies</title>
<polygon fill="#ffffff" stroke="transparent" points="-4,4 -4,-351 1269,-351 1269,4 -4,4"/>
<text text-anchor="start" x="611.5091" y="-42.4" font-family="sans-serif" font-weight="bold" font-size="14.00" fill="#000000">Legend</text>
<polygon fill="#ffffb3" stroke="transparent" points="398.5,-10 398.5,-30 418.5,-30 418.5,-10 398.5,-10"/>
<text text-anchor="start" x="422.129" y="-15.4" font-family="sans-serif" font-size="14.00" fill="#000000"> &#160;Declarations</text>
<polygon fill="#8dd3c7" stroke="transparent" points="511.5,-10 511.5,-30 531.5,-30 531.5,-10 511.5,-10"/>
<text text-anchor="start" x="535.2251" y="-15.4" font-family="sans-serif" font-size="14.00" fill="#000000"> &#160;Module</text>
<polygon fill="#80b1d3" stroke="transparent" points="597.5,-10 597.5,-30 617.5,-30 617.5,-10 597.5,-10"/>
<text text-anchor="start" x="621.2812" y="-15.4" font-family="sans-serif" font-size="14.00" fill="#000000"> &#160;Bootstrap</text>
<polygon fill="#fdb462" stroke="transparent" points="694.5,-10 694.5,-30 714.5,-30 714.5,-10 694.5,-10"/>
<text text-anchor="start" x="718.1732" y="-15.4" font-family="sans-serif" font-size="14.00" fill="#000000"> &#160;Providers</text>
<polygon fill="#fb8072" stroke="transparent" points="790.5,-10 790.5,-30 810.5,-30 810.5,-10 790.5,-10"/>
<text text-anchor="start" x="814.2258" y="-15.4" font-family="sans-serif" font-size="14.00" fill="#000000"> &#160;Exports</text>
<g id="clust1" class="cluster">
<title>cluster_AppModule</title>
<polygon fill="none" stroke="#000000" stroke-dasharray="1,5" points="8,-70 8,-282 423,-282 423,-70 8,-70"/>
</g>
<g id="clust2" class="cluster">
<title>cluster_AppModule_declarations</title>
<polygon fill="none" stroke="#000000" points="16,-78 16,-130 138,-130 138,-78 16,-78"/>
</g>
<g id="clust4" class="cluster">
<title>cluster_AppModule_imports</title>
<polygon fill="none" stroke="#000000" points="146,-78 146,-130 415,-130 415,-78 146,-78"/>
</g>
<g id="clust6" class="cluster">
<title>cluster_AppModule_bootstrap</title>
<polygon fill="none" stroke="#000000" points="156,-222 156,-274 280,-274 280,-222 156,-222"/>
</g>
<g id="clust14" class="cluster">
<title>cluster_DashboardModule</title>
<polygon fill="none" stroke="#000000" stroke-dasharray="1,5" points="783,-146 783,-339 1257,-339 1257,-146 783,-146"/>
</g>
<g id="clust15" class="cluster">
<title>cluster_DashboardModule_declarations</title>
<polygon fill="none" stroke="#000000" points="1091,-222 1091,-274 1249,-274 1249,-222 1091,-222"/>
</g>
<g id="clust17" class="cluster">
<title>cluster_DashboardModule_imports</title>
<polygon fill="none" stroke="#000000" points="791,-154 791,-274 1083,-274 1083,-154 791,-154"/>
</g>
<g id="clust27" class="cluster">
<title>cluster_FeedsModule</title>
<polygon fill="none" stroke="#000000" stroke-dasharray="1,5" points="583,-70 583,-138 1085,-138 1085,-70 583,-70"/>
</g>
<g id="clust28" class="cluster">
<title>cluster_FeedsModule_declarations</title>
<polygon fill="none" stroke="#000000" points="929,-78 929,-130 1077,-130 1077,-78 929,-78"/>
</g>
<g id="clust31" class="cluster">
<title>cluster_FeedsModule_exports</title>
<polygon fill="none" stroke="#000000" points="769,-78 769,-130 921,-130 921,-78 769,-78"/>
</g>
<g id="clust33" class="cluster">
<title>cluster_FeedsModule_providers</title>
<polygon fill="none" stroke="#000000" points="591,-78 591,-130 761,-130 761,-78 591,-78"/>
</g>
<g id="clust40" class="cluster">
<title>cluster_UserModule</title>
<polygon fill="none" stroke="#000000" stroke-dasharray="1,5" points="431,-146 431,-214 775,-214 775,-146 431,-146"/>
</g>
<g id="clust41" class="cluster">
<title>cluster_UserModule_declarations</title>
<polygon fill="none" stroke="#000000" points="609,-154 609,-206 767,-206 767,-154 609,-154"/>
</g>
<g id="clust46" class="cluster">
<title>cluster_UserModule_providers</title>
<polygon fill="none" stroke="#000000" points="439,-154 439,-206 601,-206 601,-154 439,-154"/>
</g>
<!-- AppComponent -->
<g id="node1" class="node">
<title>AppComponent</title>
<polygon fill="#ffffb3" stroke="#000000" points="129.9399,-122 24.0601,-122 24.0601,-86 129.9399,-86 129.9399,-122"/>
<text text-anchor="middle" x="77" y="-99.8" font-family="Times,serif" font-size="14.00" fill="#000000">AppComponent</text>
</g>
<!-- AppModule -->
<g id="node2" class="node">
<title>AppModule</title>
<polygon fill="#8dd3c7" stroke="#000000" points="259.6571,-198 256.6571,-202 235.6571,-202 232.6571,-198 176.3429,-198 176.3429,-162 259.6571,-162 259.6571,-198"/>
<text text-anchor="middle" x="218" y="-175.8" font-family="Times,serif" font-size="14.00" fill="#000000">AppModule</text>
</g>
<!-- AppComponent&#45;&gt;AppModule -->
<g id="edge1" class="edge">
<title>AppComponent&#45;&gt;AppModule</title>
<path fill="none" stroke="#000000" d="M77,-122.0109C77,-144.4852 77,-180 77,-180 77,-180 166.0771,-180 166.0771,-180"/>
<polygon fill="#000000" stroke="#000000" points="166.0771,-183.5001 176.0771,-180 166.0771,-176.5001 166.0771,-183.5001"/>
</g>
<!-- AppComponent  -->
<g id="node5" class="node">
<title>AppComponent </title>
<polygon fill="#80b1d3" stroke="#000000" points="272.439,-266 163.561,-266 163.561,-230 272.439,-230 272.439,-266"/>
<text text-anchor="middle" x="218" y="-243.8" font-family="Times,serif" font-size="14.00" fill="#000000">AppComponent </text>
</g>
<!-- AppModule&#45;&gt;AppComponent  -->
<g id="edge4" class="edge">
<title>AppModule&#45;&gt;AppComponent </title>
<path fill="none" stroke="#000000" stroke-dasharray="1,5" d="M218,-198.2228C218,-198.2228 218,-219.7269 218,-219.7269"/>
<polygon fill="#000000" stroke="#000000" points="214.5001,-219.7269 218,-229.7269 221.5001,-219.727 214.5001,-219.7269"/>
</g>
<!-- AppRoutingModule -->
<g id="node3" class="node">
<title>AppRoutingModule</title>
<polygon fill="#8dd3c7" stroke="#000000" points="282.2744,-122 279.2744,-126 258.2744,-126 255.2744,-122 153.7256,-122 153.7256,-86 282.2744,-86 282.2744,-122"/>
<text text-anchor="middle" x="218" y="-99.8" font-family="Times,serif" font-size="14.00" fill="#000000">AppRoutingModule</text>
</g>
<!-- AppRoutingModule&#45;&gt;AppModule -->
<g id="edge2" class="edge">
<title>AppRoutingModule&#45;&gt;AppModule</title>
<path fill="none" stroke="#000000" d="M218,-122.0109C218,-122.0109 218,-151.855 218,-151.855"/>
<polygon fill="#000000" stroke="#000000" points="214.5001,-151.8549 218,-161.855 221.5001,-151.855 214.5001,-151.8549"/>
</g>
<!-- MaterialModule -->
<g id="node4" class="node">
<title>MaterialModule</title>
<polygon fill="#8dd3c7" stroke="#000000" points="407.4706,-122 404.4706,-126 383.4706,-126 380.4706,-122 300.5294,-122 300.5294,-86 407.4706,-86 407.4706,-122"/>
<text text-anchor="middle" x="354" y="-99.8" font-family="Times,serif" font-size="14.00" fill="#000000">MaterialModule</text>
</g>
<!-- MaterialModule&#45;&gt;AppModule -->
<g id="edge3" class="edge">
<title>MaterialModule&#45;&gt;AppModule</title>
<path fill="none" stroke="#000000" d="M321.9088,-122.0109C321.9088,-144.4852 321.9088,-180 321.9088,-180 321.9088,-180 269.665,-180 269.665,-180"/>
<polygon fill="#000000" stroke="#000000" points="269.665,-176.5001 259.665,-180 269.6649,-183.5001 269.665,-176.5001"/>
</g>
<!-- DashboardModule -->
<g id="node7" class="node">
<title>DashboardModule</title>
<polygon fill="#8dd3c7" stroke="#000000" points="964.191,-331 961.191,-335 940.191,-335 937.191,-331 843.809,-331 843.809,-295 964.191,-295 964.191,-331"/>
<text text-anchor="middle" x="904" y="-308.8" font-family="Times,serif" font-size="14.00" fill="#000000">DashboardModule</text>
</g>
<!-- MaterialModule&#45;&gt;DashboardModule -->
<g id="edge8" class="edge">
<title>MaterialModule&#45;&gt;DashboardModule</title>
<path fill="none" stroke="#000000" d="M343.3029,-122.1818C343.3029,-173.0302 343.3029,-313 343.3029,-313 343.3029,-313 833.7295,-313 833.7295,-313"/>
<polygon fill="#000000" stroke="#000000" points="833.7295,-316.5001 843.7295,-313 833.7294,-309.5001 833.7295,-316.5001"/>
</g>
<!-- FeedsModule -->
<g id="node9" class="node">
<title>FeedsModule</title>
<polygon fill="#8dd3c7" stroke="#000000" points="891.2064,-198 888.2064,-202 867.2064,-202 864.2064,-198 798.7936,-198 798.7936,-162 891.2064,-162 891.2064,-198"/>
<text text-anchor="middle" x="845" y="-175.8" font-family="Times,serif" font-size="14.00" fill="#000000">FeedsModule</text>
</g>
<!-- MaterialModule&#45;&gt;FeedsModule -->
<g id="edge11" class="edge">
<title>MaterialModule&#45;&gt;FeedsModule</title>
<path fill="none" stroke="#000000" d="M386.0912,-122.2434C386.0912,-129.4297 386.0912,-136 386.0912,-136 386.0912,-136 821.9485,-136 821.9485,-136 821.9485,-136 821.9485,-151.8495 821.9485,-151.8495"/>
<polygon fill="#000000" stroke="#000000" points="818.4485,-151.8494 821.9485,-161.8495 825.4485,-151.8495 818.4485,-151.8494"/>
</g>
<!-- UserModule -->
<g id="node10" class="node">
<title>UserModule</title>
<polygon fill="#8dd3c7" stroke="#000000" points="884.9762,-266 881.9762,-270 860.9762,-270 857.9762,-266 799.0238,-266 799.0238,-230 884.9762,-230 884.9762,-266"/>
<text text-anchor="middle" x="842" y="-243.8" font-family="Times,serif" font-size="14.00" fill="#000000">UserModule</text>
</g>
<!-- MaterialModule&#45;&gt;UserModule -->
<g id="edge16" class="edge">
<title>MaterialModule&#45;&gt;UserModule</title>
<path fill="none" stroke="#000000" d="M364.6971,-122.1519C364.6971,-162.68 364.6971,-257 364.6971,-257 364.6971,-257 788.8007,-257 788.8007,-257"/>
<polygon fill="#000000" stroke="#000000" points="788.8008,-260.5001 798.8007,-257 788.8007,-253.5001 788.8008,-260.5001"/>
</g>
<!-- DashboardComponent -->
<g id="node6" class="node">
<title>DashboardComponent</title>
<polygon fill="#ffffb3" stroke="#000000" points="1240.9734,-266 1099.0266,-266 1099.0266,-230 1240.9734,-230 1240.9734,-266"/>
<text text-anchor="middle" x="1170" y="-243.8" font-family="Times,serif" font-size="14.00" fill="#000000">DashboardComponent</text>
</g>
<!-- DashboardComponent&#45;&gt;DashboardModule -->
<g id="edge5" class="edge">
<title>DashboardComponent&#45;&gt;DashboardModule</title>
<path fill="none" stroke="#000000" d="M1098.7681,-248C1033.1324,-248 945.8455,-248 945.8455,-248 945.8455,-248 945.8455,-284.8939 945.8455,-284.8939"/>
<polygon fill="#000000" stroke="#000000" points="942.3456,-284.8938 945.8455,-294.8939 949.3456,-284.8939 942.3456,-284.8938"/>
</g>
<!-- DashboardRoutingModule -->
<g id="node8" class="node">
<title>DashboardRoutingModule</title>
<polygon fill="#8dd3c7" stroke="#000000" points="1074.8089,-198 1071.8089,-202 1050.8089,-202 1047.8089,-198 909.1911,-198 909.1911,-162 1074.8089,-162 1074.8089,-198"/>
<text text-anchor="middle" x="992" y="-175.8" font-family="Times,serif" font-size="14.00" fill="#000000">DashboardRoutingModule</text>
</g>
<!-- DashboardRoutingModule&#45;&gt;DashboardModule -->
<g id="edge6" class="edge">
<title>DashboardRoutingModule&#45;&gt;DashboardModule</title>
<path fill="none" stroke="#000000" d="M927.5956,-198.2142C927.5956,-198.2142 927.5956,-284.579 927.5956,-284.579"/>
<polygon fill="#000000" stroke="#000000" points="924.0957,-284.5789 927.5956,-294.579 931.0957,-284.579 924.0957,-284.5789"/>
</g>
<!-- FeedsModule&#45;&gt;DashboardModule -->
<g id="edge7" class="edge">
<title>FeedsModule&#45;&gt;DashboardModule</title>
<path fill="none" stroke="#000000" d="M891.1052,-180C896.5538,-180 900.2244,-180 900.2244,-180 900.2244,-180 900.2244,-284.7858 900.2244,-284.7858"/>
<polygon fill="#000000" stroke="#000000" points="896.7245,-284.7858 900.2244,-294.7858 903.7245,-284.7858 896.7245,-284.7858"/>
</g>
<!-- FeedsModule&#45;&gt;UserModule -->
<g id="edge15" class="edge">
<title>FeedsModule&#45;&gt;UserModule</title>
<path fill="none" stroke="#000000" d="M842,-198.2228C842,-198.2228 842,-219.7269 842,-219.7269"/>
<polygon fill="#000000" stroke="#000000" points="838.5001,-219.7269 842,-229.7269 845.5001,-219.727 838.5001,-219.7269"/>
</g>
<!-- FeedBoxComponent  -->
<g id="node12" class="node">
<title>FeedBoxComponent </title>
<polygon fill="#fb8072" stroke="#000000" points="912.8813,-122 777.1187,-122 777.1187,-86 912.8813,-86 912.8813,-122"/>
<text text-anchor="middle" x="845" y="-99.8" font-family="Times,serif" font-size="14.00" fill="#000000">FeedBoxComponent </text>
</g>
<!-- FeedsModule&#45;&gt;FeedBoxComponent  -->
<g id="edge12" class="edge">
<title>FeedsModule&#45;&gt;FeedBoxComponent </title>
<path fill="none" stroke="#000000" stroke-dasharray="5,2" d="M845,-161.9891C845,-161.9891 845,-132.145 845,-132.145"/>
<polygon fill="#000000" stroke="#000000" points="848.5001,-132.145 845,-122.145 841.5001,-132.1451 848.5001,-132.145"/>
</g>
<!-- UserModule&#45;&gt;DashboardModule -->
<g id="edge9" class="edge">
<title>UserModule&#45;&gt;DashboardModule</title>
<path fill="none" stroke="#000000" d="M864.4464,-266.1061C864.4464,-266.1061 864.4464,-284.991 864.4464,-284.991"/>
<polygon fill="#000000" stroke="#000000" points="860.9464,-284.9909 864.4464,-294.991 867.9464,-284.991 860.9464,-284.9909"/>
</g>
<!-- FeedBoxComponent -->
<g id="node11" class="node">
<title>FeedBoxComponent</title>
<polygon fill="#ffffb3" stroke="#000000" points="1068.8809,-122 937.1191,-122 937.1191,-86 1068.8809,-86 1068.8809,-122"/>
<text text-anchor="middle" x="1003" y="-99.8" font-family="Times,serif" font-size="14.00" fill="#000000">FeedBoxComponent</text>
</g>
<!-- FeedBoxComponent&#45;&gt;FeedsModule -->
<g id="edge10" class="edge">
<title>FeedBoxComponent&#45;&gt;FeedsModule</title>
<path fill="none" stroke="#000000" d="M1003,-122.0439C1003,-134.5633 1003,-149 1003,-149 1003,-149 868.0516,-149 868.0516,-149 868.0516,-149 868.0516,-151.9672 868.0516,-151.9672"/>
<polygon fill="#000000" stroke="#000000" points="864.5516,-151.9671 868.0516,-161.9672 871.5516,-151.9672 864.5516,-151.9671"/>
</g>
<!-- FeedsApiService -->
<g id="node13" class="node">
<title>FeedsApiService</title>
<ellipse fill="#fdb462" stroke="#000000" cx="676" cy="-104" rx="77.0023" ry="18"/>
<text text-anchor="middle" x="676" y="-99.8" font-family="Times,serif" font-size="14.00" fill="#000000">FeedsApiService</text>
</g>
<!-- FeedsApiService&#45;&gt;FeedsModule -->
<g id="edge13" class="edge">
<title>FeedsApiService&#45;&gt;FeedsModule</title>
<path fill="none" stroke="#000000" d="M753.3459,-104C762.2108,-104 768.1517,-104 768.1517,-104 768.1517,-104 768.1517,-180 768.1517,-180 768.1517,-180 788.5242,-180 788.5242,-180"/>
<polygon fill="#000000" stroke="#000000" points="788.5242,-183.5001 798.5242,-180 788.5241,-176.5001 788.5242,-183.5001"/>
</g>
<!-- AddFriendComponent -->
<g id="node14" class="node">
<title>AddFriendComponent</title>
<polygon fill="#ffffb3" stroke="#000000" points="758.9874,-198 617.0126,-198 617.0126,-162 758.9874,-162 758.9874,-198"/>
<text text-anchor="middle" x="688" y="-175.8" font-family="Times,serif" font-size="14.00" fill="#000000">AddFriendComponent</text>
</g>
<!-- AddFriendComponent&#45;&gt;UserModule -->
<g id="edge14" class="edge">
<title>AddFriendComponent&#45;&gt;UserModule</title>
<path fill="none" stroke="#000000" d="M688,-198.0225C688,-215.3734 688,-239 688,-239 688,-239 788.6926,-239 788.6926,-239"/>
<polygon fill="#000000" stroke="#000000" points="788.6926,-242.5001 798.6926,-239 788.6926,-235.5001 788.6926,-242.5001"/>
</g>
<!-- UserApiService -->
<g id="node15" class="node">
<title>UserApiService</title>
<ellipse fill="#fdb462" stroke="#000000" cx="520" cy="-180" rx="72.9082" ry="18"/>
<text text-anchor="middle" x="520" y="-175.8" font-family="Times,serif" font-size="14.00" fill="#000000">UserApiService</text>
</g>
<!-- UserApiService&#45;&gt;UserModule -->
<g id="edge17" class="edge">
<title>UserApiService&#45;&gt;UserModule</title>
<path fill="none" stroke="#000000" d="M520,-198.2228C520,-218.3652 520,-248 520,-248 520,-248 788.9078,-248 788.9078,-248"/>
<polygon fill="#000000" stroke="#000000" points="788.9078,-251.5001 798.9078,-248 788.9077,-244.5001 788.9078,-251.5001"/>
</g>
</g>
</svg>
