<?xml version="1.0" encoding="UTF-8" standalone="no"?>
<!DOCTYPE svg PUBLIC "-//W3C//DTD SVG 1.1//EN"
 "http://www.w3.org/Graphics/SVG/1.1/DTD/svg11.dtd">
<!-- Generated by graphviz version 2.40.1 (20161225.0304)
 -->
<!-- Title: dependencies Pages: 1 -->
<svg width="1443pt" height="355pt"
 viewBox="0.00 0.00 1443.00 355.00" xmlns="http://www.w3.org/2000/svg" xmlns:xlink="http://www.w3.org/1999/xlink">
<g id="graph0" class="graph" transform="scale(1 1) rotate(0) translate(4 351)">
<title>dependencies</title>
<polygon fill="#ffffff" stroke="transparent" points="-4,4 -4,-351 1439,-351 1439,4 -4,4"/>
<text text-anchor="start" x="696.5091" y="-42.4" font-family="sans-serif" font-weight="bold" font-size="14.00" fill="#000000">Legend</text>
<polygon fill="#ffffb3" stroke="transparent" points="483.5,-10 483.5,-30 503.5,-30 503.5,-10 483.5,-10"/>
<text text-anchor="start" x="507.129" y="-15.4" font-family="sans-serif" font-size="14.00" fill="#000000"> &#160;Declarations</text>
<polygon fill="#8dd3c7" stroke="transparent" points="596.5,-10 596.5,-30 616.5,-30 616.5,-10 596.5,-10"/>
<text text-anchor="start" x="620.2251" y="-15.4" font-family="sans-serif" font-size="14.00" fill="#000000"> &#160;Module</text>
<polygon fill="#80b1d3" stroke="transparent" points="682.5,-10 682.5,-30 702.5,-30 702.5,-10 682.5,-10"/>
<text text-anchor="start" x="706.2812" y="-15.4" font-family="sans-serif" font-size="14.00" fill="#000000"> &#160;Bootstrap</text>
<polygon fill="#fdb462" stroke="transparent" points="779.5,-10 779.5,-30 799.5,-30 799.5,-10 779.5,-10"/>
<text text-anchor="start" x="803.1732" y="-15.4" font-family="sans-serif" font-size="14.00" fill="#000000"> &#160;Providers</text>
<polygon fill="#fb8072" stroke="transparent" points="875.5,-10 875.5,-30 895.5,-30 895.5,-10 875.5,-10"/>
<text text-anchor="start" x="899.2258" y="-15.4" font-family="sans-serif" font-size="14.00" fill="#000000"> &#160;Exports</text>
<g id="clust1" class="cluster">
<title>cluster_AppModule</title>
<polygon fill="none" stroke="#000000" stroke-dasharray="1,5" points="8,-70 8,-282 423,-282 423,-70 8,-70"/>
</g>
<g id="clust2" class="cluster">
<title>cluster_AppModule_declarations</title>
<polygon fill="none" stroke="#000000" points="16,-78 16,-130 138,-130 138,-78 16,-78"/>
</g>
<g id="clust4" class="cluster">
<title>cluster_AppModule_imports</title>
<polygon fill="none" stroke="#000000" points="146,-78 146,-130 415,-130 415,-78 146,-78"/>
</g>
<g id="clust6" class="cluster">
<title>cluster_AppModule_bootstrap</title>
<polygon fill="none" stroke="#000000" points="156,-222 156,-274 280,-274 280,-222 156,-222"/>
</g>
<g id="clust14" class="cluster">
<title>cluster_DashboardModule</title>
<polygon fill="none" stroke="#000000" stroke-dasharray="1,5" points="953,-146 953,-339 1427,-339 1427,-146 953,-146"/>
</g>
<g id="clust15" class="cluster">
<title>cluster_DashboardModule_declarations</title>
<polygon fill="none" stroke="#000000" points="1261,-222 1261,-274 1419,-274 1419,-222 1261,-222"/>
</g>
<g id="clust17" class="cluster">
<title>cluster_DashboardModule_imports</title>
<polygon fill="none" stroke="#000000" points="961,-154 961,-274 1253,-274 1253,-154 961,-154"/>
</g>
<g id="clust27" class="cluster">
<title>cluster_FeedsModule</title>
<polygon fill="none" stroke="#000000" stroke-dasharray="1,5" points="753,-70 753,-138 1255,-138 1255,-70 753,-70"/>
</g>
<g id="clust28" class="cluster">
<title>cluster_FeedsModule_declarations</title>
<polygon fill="none" stroke="#000000" points="1099,-78 1099,-130 1247,-130 1247,-78 1099,-78"/>
</g>
<g id="clust31" class="cluster">
<title>cluster_FeedsModule_exports</title>
<polygon fill="none" stroke="#000000" points="939,-78 939,-130 1091,-130 1091,-78 939,-78"/>
</g>
<g id="clust33" class="cluster">
<title>cluster_FeedsModule_providers</title>
<polygon fill="none" stroke="#000000" points="761,-78 761,-130 931,-130 931,-78 761,-78"/>
</g>
<g id="clust40" class="cluster">
<title>cluster_UserModule</title>
<polygon fill="none" stroke="#000000" stroke-dasharray="1,5" points="431,-146 431,-214 945,-214 945,-146 431,-146"/>
</g>
<g id="clust41" class="cluster">
<title>cluster_UserModule_declarations</title>
<polygon fill="none" stroke="#000000" points="779,-154 779,-206 937,-206 937,-154 779,-154"/>
</g>
<g id="clust44" class="cluster">
<title>cluster_UserModule_exports</title>
<polygon fill="none" stroke="#000000" points="609,-154 609,-206 771,-206 771,-154 609,-154"/>
</g>
<g id="clust46" class="cluster">
<title>cluster_UserModule_providers</title>
<polygon fill="none" stroke="#000000" points="439,-154 439,-206 601,-206 601,-154 439,-154"/>
</g>
<!-- AppComponent -->
<g id="node1" class="node">
<title>AppComponent</title>
<polygon fill="#ffffb3" stroke="#000000" points="129.9399,-122 24.0601,-122 24.0601,-86 129.9399,-86 129.9399,-122"/>
<text text-anchor="middle" x="77" y="-99.8" font-family="Times,serif" font-size="14.00" fill="#000000">AppComponent</text>
</g>
<!-- AppModule -->
<g id="node2" class="node">
<title>AppModule</title>
<polygon fill="#8dd3c7" stroke="#000000" points="259.6571,-198 256.6571,-202 235.6571,-202 232.6571,-198 176.3429,-198 176.3429,-162 259.6571,-162 259.6571,-198"/>
<text text-anchor="middle" x="218" y="-175.8" font-family="Times,serif" font-size="14.00" fill="#000000">AppModule</text>
</g>
<!-- AppComponent&#45;&gt;AppModule -->
<g id="edge1" class="edge">
<title>AppComponent&#45;&gt;AppModule</title>
<path fill="none" stroke="#000000" d="M77,-122.0109C77,-144.4852 77,-180 77,-180 77,-180 166.0771,-180 166.0771,-180"/>
<polygon fill="#000000" stroke="#000000" points="166.0771,-183.5001 176.0771,-180 166.0771,-176.5001 166.0771,-183.5001"/>
</g>
<!-- AppComponent  -->
<g id="node5" class="node">
<title>AppComponent </title>
<polygon fill="#80b1d3" stroke="#000000" points="272.439,-266 163.561,-266 163.561,-230 272.439,-230 272.439,-266"/>
<text text-anchor="middle" x="218" y="-243.8" font-family="Times,serif" font-size="14.00" fill="#000000">AppComponent </text>
</g>
<!-- AppModule&#45;&gt;AppComponent  -->
<g id="edge4" class="edge">
<title>AppModule&#45;&gt;AppComponent </title>
<path fill="none" stroke="#000000" stroke-dasharray="1,5" d="M218,-198.2228C218,-198.2228 218,-219.7269 218,-219.7269"/>
<polygon fill="#000000" stroke="#000000" points="214.5001,-219.7269 218,-229.7269 221.5001,-219.727 214.5001,-219.7269"/>
</g>
<!-- AppRoutingModule -->
<g id="node3" class="node">
<title>AppRoutingModule</title>
<polygon fill="#8dd3c7" stroke="#000000" points="282.2744,-122 279.2744,-126 258.2744,-126 255.2744,-122 153.7256,-122 153.7256,-86 282.2744,-86 282.2744,-122"/>
<text text-anchor="middle" x="218" y="-99.8" font-family="Times,serif" font-size="14.00" fill="#000000">AppRoutingModule</text>
</g>
<!-- AppRoutingModule&#45;&gt;AppModule -->
<g id="edge2" class="edge">
<title>AppRoutingModule&#45;&gt;AppModule</title>
<path fill="none" stroke="#000000" d="M218,-122.0109C218,-122.0109 218,-151.855 218,-151.855"/>
<polygon fill="#000000" stroke="#000000" points="214.5001,-151.8549 218,-161.855 221.5001,-151.855 214.5001,-151.8549"/>
</g>
<!-- MaterialModule -->
<g id="node4" class="node">
<title>MaterialModule</title>
<polygon fill="#8dd3c7" stroke="#000000" points="407.4706,-122 404.4706,-126 383.4706,-126 380.4706,-122 300.5294,-122 300.5294,-86 407.4706,-86 407.4706,-122"/>
<text text-anchor="middle" x="354" y="-99.8" font-family="Times,serif" font-size="14.00" fill="#000000">MaterialModule</text>
</g>
<!-- MaterialModule&#45;&gt;AppModule -->
<g id="edge3" class="edge">
<title>MaterialModule&#45;&gt;AppModule</title>
<path fill="none" stroke="#000000" d="M321.9088,-122.0109C321.9088,-144.4852 321.9088,-180 321.9088,-180 321.9088,-180 269.665,-180 269.665,-180"/>
<polygon fill="#000000" stroke="#000000" points="269.665,-176.5001 259.665,-180 269.6649,-183.5001 269.665,-176.5001"/>
</g>
<!-- DashboardModule -->
<g id="node7" class="node">
<title>DashboardModule</title>
<polygon fill="#8dd3c7" stroke="#000000" points="1134.191,-331 1131.191,-335 1110.191,-335 1107.191,-331 1013.809,-331 1013.809,-295 1134.191,-295 1134.191,-331"/>
<text text-anchor="middle" x="1074" y="-308.8" font-family="Times,serif" font-size="14.00" fill="#000000">DashboardModule</text>
</g>
<!-- MaterialModule&#45;&gt;DashboardModule -->
<g id="edge8" class="edge">
<title>MaterialModule&#45;&gt;DashboardModule</title>
<path fill="none" stroke="#000000" d="M343.3029,-122.1818C343.3029,-173.0302 343.3029,-313 343.3029,-313 343.3029,-313 1003.8935,-313 1003.8935,-313"/>
<polygon fill="#000000" stroke="#000000" points="1003.8935,-316.5001 1013.8935,-313 1003.8935,-309.5001 1003.8935,-316.5001"/>
</g>
<!-- FeedsModule -->
<g id="node9" class="node">
<title>FeedsModule</title>
<polygon fill="#8dd3c7" stroke="#000000" points="1061.2064,-198 1058.2064,-202 1037.2064,-202 1034.2064,-198 968.7936,-198 968.7936,-162 1061.2064,-162 1061.2064,-198"/>
<text text-anchor="middle" x="1015" y="-175.8" font-family="Times,serif" font-size="14.00" fill="#000000">FeedsModule</text>
</g>
<!-- MaterialModule&#45;&gt;FeedsModule -->
<g id="edge11" class="edge">
<title>MaterialModule&#45;&gt;FeedsModule</title>
<path fill="none" stroke="#000000" d="M386.0912,-122.2434C386.0912,-129.4297 386.0912,-136 386.0912,-136 386.0912,-136 991.9485,-136 991.9485,-136 991.9485,-136 991.9485,-151.8495 991.9485,-151.8495"/>
<polygon fill="#000000" stroke="#000000" points="988.4485,-151.8494 991.9485,-161.8495 995.4485,-151.8495 988.4485,-151.8494"/>
</g>
<!-- UserModule -->
<g id="node10" class="node">
<title>UserModule</title>
<polygon fill="#8dd3c7" stroke="#000000" points="1054.9762,-266 1051.9762,-270 1030.9762,-270 1027.9762,-266 969.0238,-266 969.0238,-230 1054.9762,-230 1054.9762,-266"/>
<text text-anchor="middle" x="1012" y="-243.8" font-family="Times,serif" font-size="14.00" fill="#000000">UserModule</text>
</g>
<!-- MaterialModule&#45;&gt;UserModule -->
<g id="edge16" class="edge">
<title>MaterialModule&#45;&gt;UserModule</title>
<path fill="none" stroke="#000000" d="M364.6971,-122.0838C364.6971,-162.9711 364.6971,-259 364.6971,-259 364.6971,-259 958.7757,-259 958.7757,-259"/>
<polygon fill="#000000" stroke="#000000" points="958.7758,-262.5001 968.7757,-259 958.7757,-255.5001 958.7758,-262.5001"/>
</g>
<!-- DashboardComponent -->
<g id="node6" class="node">
<title>DashboardComponent</title>
<polygon fill="#ffffb3" stroke="#000000" points="1410.9734,-266 1269.0266,-266 1269.0266,-230 1410.9734,-230 1410.9734,-266"/>
<text text-anchor="middle" x="1340" y="-243.8" font-family="Times,serif" font-size="14.00" fill="#000000">DashboardComponent</text>
</g>
<!-- DashboardComponent&#45;&gt;DashboardModule -->
<g id="edge5" class="edge">
<title>DashboardComponent&#45;&gt;DashboardModule</title>
<path fill="none" stroke="#000000" d="M1268.7681,-248C1203.1324,-248 1115.8455,-248 1115.8455,-248 1115.8455,-248 1115.8455,-284.8939 1115.8455,-284.8939"/>
<polygon fill="#000000" stroke="#000000" points="1112.3456,-284.8938 1115.8455,-294.8939 1119.3456,-284.8939 1112.3456,-284.8938"/>
</g>
<!-- DashboardRoutingModule -->
<g id="node8" class="node">
<title>DashboardRoutingModule</title>
<polygon fill="#8dd3c7" stroke="#000000" points="1244.8089,-198 1241.8089,-202 1220.8089,-202 1217.8089,-198 1079.1911,-198 1079.1911,-162 1244.8089,-162 1244.8089,-198"/>
<text text-anchor="middle" x="1162" y="-175.8" font-family="Times,serif" font-size="14.00" fill="#000000">DashboardRoutingModule</text>
</g>
<!-- DashboardRoutingModule&#45;&gt;DashboardModule -->
<g id="edge6" class="edge">
<title>DashboardRoutingModule&#45;&gt;DashboardModule</title>
<path fill="none" stroke="#000000" d="M1097.5956,-198.2142C1097.5956,-198.2142 1097.5956,-284.579 1097.5956,-284.579"/>
<polygon fill="#000000" stroke="#000000" points="1094.0957,-284.5789 1097.5956,-294.579 1101.0957,-284.579 1094.0957,-284.5789"/>
</g>
<!-- FeedsModule&#45;&gt;DashboardModule -->
<g id="edge7" class="edge">
<title>FeedsModule&#45;&gt;DashboardModule</title>
<path fill="none" stroke="#000000" d="M1061.1052,-180C1066.5538,-180 1070.2244,-180 1070.2244,-180 1070.2244,-180 1070.2244,-284.7858 1070.2244,-284.7858"/>
<polygon fill="#000000" stroke="#000000" points="1066.7245,-284.7858 1070.2244,-294.7858 1073.7245,-284.7858 1066.7245,-284.7858"/>
</g>
<!-- FeedsModule&#45;&gt;UserModule -->
<g id="edge15" class="edge">
<title>FeedsModule&#45;&gt;UserModule</title>
<path fill="none" stroke="#000000" d="M1012,-198.2228C1012,-198.2228 1012,-219.7269 1012,-219.7269"/>
<polygon fill="#000000" stroke="#000000" points="1008.5001,-219.7269 1012,-229.7269 1015.5001,-219.727 1008.5001,-219.7269"/>
</g>
<!-- FeedBoxComponent  -->
<g id="node12" class="node">
<title>FeedBoxComponent </title>
<polygon fill="#fb8072" stroke="#000000" points="1082.8813,-122 947.1187,-122 947.1187,-86 1082.8813,-86 1082.8813,-122"/>
<text text-anchor="middle" x="1015" y="-99.8" font-family="Times,serif" font-size="14.00" fill="#000000">FeedBoxComponent </text>
</g>
<!-- FeedsModule&#45;&gt;FeedBoxComponent  -->
<g id="edge12" class="edge">
<title>FeedsModule&#45;&gt;FeedBoxComponent </title>
<path fill="none" stroke="#000000" stroke-dasharray="5,2" d="M1015,-161.9891C1015,-161.9891 1015,-132.145 1015,-132.145"/>
<polygon fill="#000000" stroke="#000000" points="1018.5001,-132.145 1015,-122.145 1011.5001,-132.1451 1018.5001,-132.145"/>
</g>
<!-- UserModule&#45;&gt;DashboardModule -->
<g id="edge9" class="edge">
<title>UserModule&#45;&gt;DashboardModule</title>
<path fill="none" stroke="#000000" d="M1034.4464,-266.1061C1034.4464,-266.1061 1034.4464,-284.991 1034.4464,-284.991"/>
<polygon fill="#000000" stroke="#000000" points="1030.9464,-284.9909 1034.4464,-294.991 1037.9464,-284.991 1030.9464,-284.9909"/>
</g>
<!-- AddFriendComponent  -->
<g id="node15" class="node">
<title>AddFriendComponent </title>
<polygon fill="#fb8072" stroke="#000000" points="762.9882,-198 617.0118,-198 617.0118,-162 762.9882,-162 762.9882,-198"/>
<text text-anchor="middle" x="690" y="-175.8" font-family="Times,serif" font-size="14.00" fill="#000000">AddFriendComponent </text>
</g>
<!-- UserModule&#45;&gt;AddFriendComponent  -->
<g id="edge17" class="edge">
<title>UserModule&#45;&gt;AddFriendComponent </title>
<path fill="none" stroke="#000000" stroke-dasharray="5,2" d="M968.9078,-245C881.1657,-245 690,-245 690,-245 690,-245 690,-208.1061 690,-208.1061"/>
<polygon fill="#000000" stroke="#000000" points="693.5001,-208.1061 690,-198.1061 686.5001,-208.1062 693.5001,-208.1061"/>
</g>
<!-- FeedBoxComponent -->
<g id="node11" class="node">
<title>FeedBoxComponent</title>
<polygon fill="#ffffb3" stroke="#000000" points="1238.8809,-122 1107.1191,-122 1107.1191,-86 1238.8809,-86 1238.8809,-122"/>
<text text-anchor="middle" x="1173" y="-99.8" font-family="Times,serif" font-size="14.00" fill="#000000">FeedBoxComponent</text>
</g>
<!-- FeedBoxComponent&#45;&gt;FeedsModule -->
<g id="edge10" class="edge">
<title>FeedBoxComponent&#45;&gt;FeedsModule</title>
<path fill="none" stroke="#000000" d="M1173,-122.0439C1173,-134.5633 1173,-149 1173,-149 1173,-149 1038.0516,-149 1038.0516,-149 1038.0516,-149 1038.0516,-151.9672 1038.0516,-151.9672"/>
<polygon fill="#000000" stroke="#000000" points="1034.5516,-151.9671 1038.0516,-161.9672 1041.5516,-151.9672 1034.5516,-151.9671"/>
</g>
<!-- FeedsApiService -->
<g id="node13" class="node">
<title>FeedsApiService</title>
<ellipse fill="#fdb462" stroke="#000000" cx="846" cy="-104" rx="77.0023" ry="18"/>
<text text-anchor="middle" x="846" y="-99.8" font-family="Times,serif" font-size="14.00" fill="#000000">FeedsApiService</text>
</g>
<!-- FeedsApiService&#45;&gt;FeedsModule -->
<g id="edge13" class="edge">
<title>FeedsApiService&#45;&gt;FeedsModule</title>
<path fill="none" stroke="#000000" d="M923.3459,-104C932.2108,-104 938.1517,-104 938.1517,-104 938.1517,-104 938.1517,-180 938.1517,-180 938.1517,-180 958.5242,-180 958.5242,-180"/>
<polygon fill="#000000" stroke="#000000" points="958.5242,-183.5001 968.5242,-180 958.5241,-176.5001 958.5242,-183.5001"/>
</g>
<!-- AddFriendComponent -->
<g id="node14" class="node">
<title>AddFriendComponent</title>
<polygon fill="#ffffb3" stroke="#000000" points="928.9874,-198 787.0126,-198 787.0126,-162 928.9874,-162 928.9874,-198"/>
<text text-anchor="middle" x="858" y="-175.8" font-family="Times,serif" font-size="14.00" fill="#000000">AddFriendComponent</text>
</g>
<!-- AddFriendComponent&#45;&gt;UserModule -->
<g id="edge14" class="edge">
<title>AddFriendComponent&#45;&gt;UserModule</title>
<path fill="none" stroke="#000000" d="M858,-198.0336C858,-215.0597 858,-238 858,-238 858,-238 958.6926,-238 958.6926,-238"/>
<polygon fill="#000000" stroke="#000000" points="958.6926,-241.5001 968.6926,-238 958.6926,-234.5001 958.6926,-241.5001"/>
</g>
<!-- UserApiService -->
<g id="node16" class="node">
<title>UserApiService</title>
<ellipse fill="#fdb462" stroke="#000000" cx="520" cy="-180" rx="72.9082" ry="18"/>
<text text-anchor="middle" x="520" y="-175.8" font-family="Times,serif" font-size="14.00" fill="#000000">UserApiService</text>
</g>
<!-- UserApiService&#45;&gt;UserModule -->
<g id="edge18" class="edge">
<title>UserApiService&#45;&gt;UserModule</title>
<path fill="none" stroke="#000000" d="M520,-198.1686C520,-219.498 520,-252 520,-252 520,-252 958.7695,-252 958.7695,-252"/>
<polygon fill="#000000" stroke="#000000" points="958.7695,-255.5001 968.7695,-252 958.7695,-248.5001 958.7695,-255.5001"/>
</g>
</g>
</svg>
