<?xml version="1.0" encoding="UTF-8" standalone="no"?>
<!DOCTYPE svg PUBLIC "-//W3C//DTD SVG 1.1//EN"
 "http://www.w3.org/Graphics/SVG/1.1/DTD/svg11.dtd">
<!-- Generated by graphviz version 2.40.1 (20161225.0304)
 -->
<!-- Title: dependencies Pages: 1 -->
<svg width="504pt" height="284pt"
 viewBox="0.00 0.00 504.00 284.00" xmlns="http://www.w3.org/2000/svg" xmlns:xlink="http://www.w3.org/1999/xlink">
<g id="graph0" class="graph" transform="scale(1 1) rotate(0) translate(4 280)">
<title>dependencies</title>
<polygon fill="#ffffff" stroke="transparent" points="-4,4 -4,-280 500,-280 500,4 -4,4"/>
<text text-anchor="start" x="227.0091" y="-42.4" font-family="sans-serif" font-weight="bold" font-size="14.00" fill="#000000">Legend</text>
<polygon fill="#ffffb3" stroke="transparent" points="14,-10 14,-30 34,-30 34,-10 14,-10"/>
<text text-anchor="start" x="37.629" y="-15.4" font-family="sans-serif" font-size="14.00" fill="#000000"> &#160;Declarations</text>
<polygon fill="#8dd3c7" stroke="transparent" points="127,-10 127,-30 147,-30 147,-10 127,-10"/>
<text text-anchor="start" x="150.7251" y="-15.4" font-family="sans-serif" font-size="14.00" fill="#000000"> &#160;Module</text>
<polygon fill="#80b1d3" stroke="transparent" points="213,-10 213,-30 233,-30 233,-10 213,-10"/>
<text text-anchor="start" x="236.7812" y="-15.4" font-family="sans-serif" font-size="14.00" fill="#000000"> &#160;Bootstrap</text>
<polygon fill="#fdb462" stroke="transparent" points="310,-10 310,-30 330,-30 330,-10 310,-10"/>
<text text-anchor="start" x="333.6732" y="-15.4" font-family="sans-serif" font-size="14.00" fill="#000000"> &#160;Providers</text>
<polygon fill="#fb8072" stroke="transparent" points="406,-10 406,-30 426,-30 426,-10 406,-10"/>
<text text-anchor="start" x="429.7258" y="-15.4" font-family="sans-serif" font-size="14.00" fill="#000000"> &#160;Exports</text>
<g id="clust1" class="cluster">
<title>cluster_FeedsModule</title>
<polygon fill="none" stroke="#000000" stroke-dasharray="1,5" points="12,-70 12,-268 484,-268 484,-70 12,-70"/>
</g>
<g id="clust2" class="cluster">
<title>cluster_FeedsModule_declarations</title>
<polygon fill="none" stroke="#000000" points="328,-78 328,-130 476,-130 476,-78 328,-78"/>
</g>
<g id="clust4" class="cluster">
<title>cluster_FeedsModule_imports</title>
<polygon fill="none" stroke="#000000" points="198,-78 198,-130 320,-130 320,-78 198,-78"/>
</g>
<g id="clust5" class="cluster">
<title>cluster_FeedsModule_exports</title>
<polygon fill="none" stroke="#000000" points="183,-208 183,-260 335,-260 335,-208 183,-208"/>
</g>
<g id="clust7" class="cluster">
<title>cluster_FeedsModule_providers</title>
<polygon fill="none" stroke="#000000" points="20,-78 20,-130 190,-130 190,-78 20,-78"/>
</g>
<!-- FeedBoxComponent -->
<g id="node1" class="node">
<title>FeedBoxComponent</title>
<polygon fill="#ffffb3" stroke="#000000" points="467.8809,-122 336.1191,-122 336.1191,-86 467.8809,-86 467.8809,-122"/>
<text text-anchor="middle" x="402" y="-99.8" font-family="Times,serif" font-size="14.00" fill="#000000">FeedBoxComponent</text>
</g>
<!-- FeedsModule -->
<g id="node2" class="node">
<title>FeedsModule</title>
<polygon fill="#8dd3c7" stroke="#000000" points="305.2064,-187 302.2064,-191 281.2064,-191 278.2064,-187 212.7936,-187 212.7936,-151 305.2064,-151 305.2064,-187"/>
<text text-anchor="middle" x="259" y="-164.8" font-family="Times,serif" font-size="14.00" fill="#000000">FeedsModule</text>
</g>
<!-- FeedBoxComponent&#45;&gt;FeedsModule -->
<g id="edge1" class="edge">
<title>FeedBoxComponent&#45;&gt;FeedsModule</title>
<path fill="none" stroke="#000000" d="M402,-122.1061C402,-141.3391 402,-169 402,-169 402,-169 315.428,-169 315.428,-169"/>
<polygon fill="#000000" stroke="#000000" points="315.428,-165.5001 305.428,-169 315.428,-172.5001 315.428,-165.5001"/>
</g>
<!-- FeedBoxComponent  -->
<g id="node4" class="node">
<title>FeedBoxComponent </title>
<polygon fill="#fb8072" stroke="#000000" points="326.8813,-252 191.1187,-252 191.1187,-216 326.8813,-216 326.8813,-252"/>
<text text-anchor="middle" x="259" y="-229.8" font-family="Times,serif" font-size="14.00" fill="#000000">FeedBoxComponent </text>
</g>
<!-- FeedsModule&#45;&gt;FeedBoxComponent  -->
<g id="edge3" class="edge">
<title>FeedsModule&#45;&gt;FeedBoxComponent </title>
<path fill="none" stroke="#000000" stroke-dasharray="5,2" d="M259,-187.1061C259,-187.1061 259,-205.991 259,-205.991"/>
<polygon fill="#000000" stroke="#000000" points="255.5001,-205.9909 259,-215.991 262.5001,-205.991 255.5001,-205.9909"/>
</g>
<!-- MaterialModule -->
<g id="node3" class="node">
<title>MaterialModule</title>
<polygon fill="#8dd3c7" stroke="#000000" points="312.4706,-122 309.4706,-126 288.4706,-126 285.4706,-122 205.5294,-122 205.5294,-86 312.4706,-86 312.4706,-122"/>
<text text-anchor="middle" x="259" y="-99.8" font-family="Times,serif" font-size="14.00" fill="#000000">MaterialModule</text>
</g>
<!-- MaterialModule&#45;&gt;FeedsModule -->
<g id="edge2" class="edge">
<title>MaterialModule&#45;&gt;FeedsModule</title>
<path fill="none" stroke="#000000" d="M259,-122.1061C259,-122.1061 259,-140.991 259,-140.991"/>
<polygon fill="#000000" stroke="#000000" points="255.5001,-140.9909 259,-150.991 262.5001,-140.991 255.5001,-140.9909"/>
</g>
<!-- FeedsApiService -->
<g id="node5" class="node">
<title>FeedsApiService</title>
<ellipse fill="#fdb462" stroke="#000000" cx="105" cy="-104" rx="77.0023" ry="18"/>
<text text-anchor="middle" x="105" y="-99.8" font-family="Times,serif" font-size="14.00" fill="#000000">FeedsApiService</text>
</g>
<!-- FeedsApiService&#45;&gt;FeedsModule -->
<g id="edge4" class="edge">
<title>FeedsApiService&#45;&gt;FeedsModule</title>
<path fill="none" stroke="#000000" d="M105,-122.1061C105,-141.3391 105,-169 105,-169 105,-169 202.7949,-169 202.7949,-169"/>
<polygon fill="#000000" stroke="#000000" points="202.795,-172.5001 212.7949,-169 202.7949,-165.5001 202.795,-172.5001"/>
</g>
</g>
</svg>
